<?xml version="1.0" encoding="UTF-8" standalone="no"?>
<svg width="89px" height="46px" viewBox="0 0 89 46" version="1.1" xmlns="http://www.w3.org/2000/svg" xmlns:xlink="http://www.w3.org/1999/xlink" xmlns:sketch="http://www.bohemiancoding.com/sketch/ns">
    <!-- Generator: Sketch 3.5.2 (25235) - http://www.bohemiancoding.com/sketch -->
    <title>Group 7</title>
    <desc>Created with Sketch.</desc>
    <defs></defs>
    <g id="Page-1" stroke="none" stroke-width="1" fill="none" fill-rule="evenodd" sketch:type="MSPage">
        <g id="Landing-Page" sketch:type="MSArtboardGroup" transform="translate(-469.000000, -670.000000)">
            <g id="Group-7" sketch:type="MSLayerGroup" transform="translate(469.000000, 670.000000)">
                <g id="Group" transform="translate(38.000000, 36.000000)" stroke="#FFFFFF" sketch:type="MSShapeGroup">
                    <path d="M0,0 L10,0 L5,10 L0,0 Z" id="Triangle-1"></path>
                </g>
                <path d="M8.00390625,16.5976562 L16.59375,1.8671875 L18.3515625,1.8671875 L14.8242188,19 L13.640625,19 L15.8789062,8.44140625 C16.4960968,5.55857934 16.8867179,3.81250305 17.0507812,3.203125 L16.9804688,3.203125 L7.83984375,19 L7.2421875,19 L4.640625,3.203125 L4.5703125,3.203125 C4.41406172,4.40625602 4.10937727,6.07030187 3.65625,8.1953125 L1.359375,19 L0.234375,19 L3.85546875,1.8671875 L5.53125,1.8671875 L7.93359375,16.5976562 L8.00390625,16.5976562 Z M19.9570312,6.26171875 L21.1289062,6.26171875 L22.0898438,12.6835938 C22.4882832,15.425795 22.7031248,17.1796837 22.734375,17.9453125 L22.8632812,17.9453125 C23.1992204,17.1249959 23.9257757,15.6914165 25.0429688,13.6445312 L29.1210938,6.26171875 L30.328125,6.26171875 L21.9726562,21.3789062 C21.4101534,22.3710987 20.9316426,23.0664043 20.5371094,23.4648438 C20.1425762,23.8632832 19.6972681,24.1796863 19.2011719,24.4140625 C18.7050756,24.6484387 18.1328157,24.765625 17.484375,24.765625 C16.9531223,24.765625 16.4492211,24.6835946 15.9726562,24.5195312 L15.9726562,23.4414062 C16.5273465,23.6523448 17.0624974,23.7578125 17.578125,23.7578125 C18.2031281,23.7578125 18.7773411,23.5644551 19.3007812,23.1777344 C19.8242214,22.7910137 20.3320288,22.148442 20.8242188,21.25 C21.3164087,20.351558 21.7070298,19.6328152 21.9960938,19.09375 L19.9570312,6.26171875 Z M47.4609375,3.28515625 C47.2499989,3.87890922 47.0078139,4.4785126 46.734375,5.08398438 C46.4609361,5.68945615 44.2617394,10.3280816 40.1367188,19 L39.1757812,19 L38.3203125,1.8671875 L39.4921875,1.8671875 L40.0429688,13.9492188 L40.0898438,15.8828125 L40.0664062,16.890625 L40.1367188,16.890625 C40.8007846,15.1249912 41.4648404,13.5703192 42.1289062,12.2265625 L47.2148438,1.8671875 L48.4453125,1.8671875 L49.1601562,12.15625 C49.3085945,14.2343854 49.3828125,15.8359319 49.3828125,16.9609375 L49.453125,16.9609375 C49.6875012,16.2890591 49.9277331,15.6523468 50.1738281,15.0507812 C50.4199231,14.4492157 52.3476382,10.0547284 55.9570312,1.8671875 L57.2226562,1.8671875 C55.9023371,4.71876426 54.6113344,7.57420445 53.3496094,10.4335938 C52.0878843,13.292983 50.804694,16.1484232 49.5,19 L48.5859375,19 L47.671875,6.40234375 C47.5859371,5.2929632 47.5429688,4.43750301 47.5429688,3.8359375 L47.5546875,3.28515625 L47.4609375,3.28515625 Z M62.6015625,6.015625 C64.0078195,6.015625 65.0956993,6.43944889 65.8652344,7.28710938 C66.6347695,8.13476986 67.0195312,9.30468004 67.0195312,10.796875 C67.0195312,12.3359452 66.7402372,13.7753839 66.1816406,15.1152344 C65.6230441,16.4550848 64.8593798,17.476559 63.890625,18.1796875 C62.9218702,18.882816 61.8046938,19.234375 60.5390625,19.234375 C59.1015553,19.234375 58.0097694,18.8066449 57.2636719,17.9511719 C56.5175744,17.0956988 56.1445313,15.8711017 56.1445313,14.2773438 C56.1445313,12.7851488 56.4296846,11.3867253 57,10.0820312 C57.5703154,8.77733723 58.3398389,7.77344102 59.3085938,7.0703125 C60.2773486,6.36718398 61.3749939,6.015625 62.6015625,6.015625 L62.6015625,6.015625 Z M62.5078125,7.0234375 C61.5390577,7.0234375 60.6679726,7.33007506 59.8945313,7.94335938 C59.1210899,8.55664369 58.5039086,9.43554115 58.0429688,10.5800781 C57.5820289,11.7246151 57.3515625,12.9374936 57.3515625,14.21875 C57.3515625,16.8906384 58.453114,18.2265625 60.65625,18.2265625 C61.6484425,18.2265625 62.529293,17.9238312 63.2988281,17.3183594 C64.0683632,16.7128876 64.6816383,15.8222715 65.1386719,14.6464844 C65.5957054,13.4706972 65.8242188,12.1796945 65.8242188,10.7734375 C65.8242188,9.57030648 65.5390654,8.64453449 64.96875,7.99609375 C64.3984346,7.34765301 63.5781304,7.0234375 62.5078125,7.0234375 L62.5078125,7.0234375 Z M76.5234375,6.0390625 C77.0625027,6.0390625 77.5429666,6.09374945 77.9648438,6.203125 L77.71875,7.29296875 C77.3515607,7.17578066 76.9101588,7.1171875 76.3945312,7.1171875 C75.6601526,7.1171875 74.9609408,7.367185 74.296875,7.8671875 C73.6328092,8.36719 73.0351589,9.1171825 72.5039062,10.1171875 C71.9726536,11.1171925 71.5820325,12.1992129 71.3320312,13.3632812 L70.1601562,19 L69.0117188,19 L71.71875,6.26171875 L72.65625,6.26171875 L72.3164062,8.65234375 L72.3867188,8.65234375 C72.9570341,7.91796508 73.437498,7.3886735 73.828125,7.06445312 C74.218752,6.74023275 74.6347634,6.48828215 75.0761719,6.30859375 C75.5175803,6.12890535 75.9999974,6.0390625 76.5234375,6.0390625 L76.5234375,6.0390625 Z M80.1445312,13.4101562 L87.28125,6.26171875 L88.7460938,6.26171875 L83.1914062,11.7578125 L86.671875,19 L85.4296875,19 L82.3359375,12.4492188 L79.9335938,14.6523437 L78.9960938,19 L77.8710938,19 L81.7382812,0.765625 L82.8632812,0.765625 L80.9179688,9.90625 L80.0976562,13.4101562 L80.1445312,13.4101562 Z" id="My-Work" fill="#FFFFFF" sketch:type="MSShapeGroup"></path>
            </g>
        </g>
    </g>
</svg>