<?xml version="1.0" encoding="UTF-8" standalone="no"?>
<svg width="114px" height="19px" viewBox="0 0 114 19" version="1.1" xmlns="http://www.w3.org/2000/svg" xmlns:xlink="http://www.w3.org/1999/xlink" xmlns:sketch="http://www.bohemiancoding.com/sketch/ns">
    <!-- Generator: Sketch 3.5.1 (25234) - http://www.bohemiancoding.com/sketch -->
    <title>Group</title>
    <desc>Created with Sketch.</desc>
    <defs></defs>
    <g id="Page-1" stroke="none" stroke-width="1" fill="none" fill-rule="evenodd" sketch:type="MSPage">
        <g id="Desktop-Copy" sketch:type="MSArtboardGroup" transform="translate(-30.000000, -30.000000)">
            <g id="Group" sketch:type="MSLayerGroup" transform="translate(30.000000, 30.000000)">
                <path d="M0.3015,1.1287 L0.3015,4.5177 L9.6645,4.5177 L0.0005,15.7637 L0.0005,18.6997 L14.6345,18.6997 L14.6345,15.3107 L4.9695,15.3107 L14.6345,4.0657 L14.6345,1.1287 L0.3015,1.1287 Z" id="Fill-1" fill="#FFFFFF" sketch:type="MSShapeGroup"></path>
                <path d="M23.0652,1.0027 L15.5342,18.6997 L19.4762,18.6997 L21.0822,14.7587 L28.5122,14.7587 L30.1172,18.6997 L34.1592,18.6997 L26.6302,1.0027 L23.0652,1.0027 Z M24.7972,5.6477 L27.1312,11.3457 L22.4632,11.3457 L24.7972,5.6477 Z" id="Fill-2" fill="#FFFFFF" sketch:type="MSShapeGroup"></path>
                <path d="M42.7126,19 C37.5416,19 33.7006,15.009 33.7006,9.965 L33.7006,9.914 C33.7006,4.919 37.4656,0.827 42.8626,0.827 C46.1756,0.827 48.1586,1.931 49.7916,3.539 L47.3306,6.374 C45.9756,5.145 44.5946,4.391 42.8386,4.391 C39.8746,4.391 37.7416,6.852 37.7416,9.864 L37.7416,9.914 C37.7416,12.926 39.8256,15.436 42.8386,15.436 C44.8456,15.436 46.0756,14.633 47.4566,13.378 L49.9166,15.863 C48.1086,17.796 46.1006,19 42.7126,19" id="Fill-3" fill="#FFFFFF" sketch:type="MSShapeGroup"></path>
                <path d="M55.6103,13.3274 L55.6103,18.6994 L51.7463,18.6994 L51.7463,1.1284 L55.6103,1.1284 L55.6103,2.4374 L55.6103,8.8094 L58.1353,6.0884 L55.6103,13.3274 Z" id="Fill-5" fill="#FFFFFF" sketch:type="MSShapeGroup"></path>
                <path d="M63.0912,18.6996 L58.7782,12.7766 L60.2302,8.5506 L67.7352,18.6996 L63.0912,18.6996 Z M55.6102,13.3276 L58.1352,6.0886 L62.7402,1.1286 L67.4082,1.1286 L55.6102,13.3276 Z" id="Fill-7" fill="#6FC3FF" sketch:type="MSShapeGroup"></path>
                <path d="M68.8113,18.6996 L68.8113,1.1286 L82.0643,1.1286 L82.0643,4.5676 L72.6513,4.5676 L72.6513,8.1316 L80.9333,8.1316 L80.9333,11.5706 L72.6513,11.5706 L72.6513,15.2606 L82.1903,15.2606 L82.1903,18.6996 L68.8113,18.6996 Z" id="Fill-9" fill="#6FC3FF" sketch:type="MSShapeGroup"></path>
                <path d="M93.8238,11.6964 L93.8238,18.6994 L89.9588,18.6994 L89.9588,11.7704 L83.2058,1.1284 L87.7238,1.1284 L91.9168,8.1814 L96.1838,1.1284 L100.5758,1.1284 L93.8238,11.6964 Z" id="Fill-11" fill="#6FC3FF" sketch:type="MSShapeGroup"></path>
                <path d="M107.096,18.9508 C104.434,18.9508 101.749,18.0218 99.64,16.1398 L101.924,13.4048 C103.505,14.7088 105.162,15.5368 107.17,15.5368 C108.751,15.5368 109.706,14.9098 109.706,13.8798 L109.706,13.8308 C109.706,12.8508 109.103,12.3498 106.166,11.5948 C102.627,10.6918 100.342,9.7138 100.342,6.2238 L100.342,6.1738 C100.342,2.9858 102.903,0.8778 106.493,0.8778 C109.053,0.8778 111.237,1.6808 113.019,3.1118 L111.011,6.0248 C109.454,4.9448 107.922,4.2918 106.443,4.2918 C104.961,4.2918 104.183,4.9688 104.183,5.8228 L104.183,5.8738 C104.183,7.0268 104.937,7.4038 107.974,8.1818 C111.537,9.1118 113.547,10.3908 113.547,13.4528 L113.547,13.5028 C113.547,16.9918 110.885,18.9508 107.096,18.9508" id="Fill-13" fill="#6FC3FF" sketch:type="MSShapeGroup"></path>
                <path d="M58.7786,12.7771 L60.2296,8.5501 L57.6466,11.2221 L58.7786,12.7771 Z" id="Fill-16" fill="#FFFFFF" sketch:type="MSShapeGroup"></path>
            </g>
        </g>
    </g>
</svg>