<?xml version="1.0" encoding="UTF-8" standalone="no"?>
<svg width="270px" height="44px" viewBox="0 0 270 44" version="1.1" xmlns="http://www.w3.org/2000/svg" xmlns:xlink="http://www.w3.org/1999/xlink" xmlns:sketch="http://www.bohemiancoding.com/sketch/ns">
    <!-- Generator: Sketch 3.5.1 (25234) - http://www.bohemiancoding.com/sketch -->
    <title>Group Copy</title>
    <desc>Created with Sketch.</desc>
    <defs></defs>
    <g id="Page-1" stroke="none" stroke-width="1" fill="none" fill-rule="evenodd" sketch:type="MSPage">
        <g id="Desktop" sketch:type="MSArtboardGroup" transform="translate(-377.000000, -285.000000)">
            <g id="Group-2" sketch:type="MSLayerGroup" transform="translate(338.000000, 285.000000)">
                <g id="Group-Copy" transform="translate(39.000000, 0.000000)" sketch:type="MSShapeGroup">
                    <path d="M0.719898866,1 L0.719898866,9.10073416 L23.1132978,9.10073416 L0,35.9820727 L0,43 L35,43 L35,34.8992658 L11.8843105,34.8992658 L35,8.02031757 L35,1 L0.719898866,1 Z" id="Fill-1" fill="#FFFFFF"></path>
                    <path d="M54.7913557,1 L37,43 L46.3126443,43 L50.1066846,33.6468893 L67.6594362,33.6468893 L71.4511141,43 L81,43 L63.2133691,1 L54.7913557,1 Z M58.8830604,12.0239024 L64.3969396,25.5468724 L53.3691812,25.5468724 L58.8830604,12.0239024 Z" id="Fill-2" fill="#FFFFFF"></path>
                    <path d="M101.118402,43 C89.0008633,43 80,33.556705 80,21.6218566 L80,21.5011831 C80,9.6822759 88.8227676,0 101.469906,0 C109.233473,0 113.880365,2.61222693 117.707079,6.41699224 L111.940059,13.1250206 C108.7648,10.2170253 105.528614,8.43294998 101.413666,8.43294998 C94.4679329,8.43294998 89.4695363,14.2560392 89.4695363,21.3828757 L89.4695363,21.5011831 C89.4695363,28.6280196 94.353108,34.56705 101.413666,34.56705 C106.116798,34.56705 108.999137,32.6670335 112.235323,29.6975183 L118,35.577395 C113.763197,40.1511583 109.057721,43 101.118402,43" id="Fill-3" fill="#FFFFFF"></path>
                    <path d="M132.071842,30.1592966 L132.071842,43 L123,43 L123,1 L132.071842,1 L132.071842,4.12890558 L132.071842,19.3599112 L138,12.8558989 L132.071842,30.1592966 Z" id="Fill-5" fill="#FFFFFF"></path>
                    <path d="M149.892701,43 L139.577072,28.8422401 L143.049897,18.7408229 L161,43 L149.892701,43 Z M132,30.1592966 L138.039175,12.8558989 L149.053196,1 L160.217897,1 L132,30.1592966 Z" id="Fill-7" fill="#1D1D1D"></path>
                    <path d="M164,43 L164,1 L195.698632,1 L195.698632,9.22024927 L173.184543,9.22024927 L173.184543,17.7392863 L192.993497,17.7392863 L192.993497,25.9595356 L173.184543,25.9595356 L173.184543,34.7797507 L196,34.7797507 L196,43 L164,43 Z" id="Fill-9" fill="#1D1D1D"></path>
                    <path d="M223.673921,26.2607137 L223.673921,43 L214.328497,43 L214.328497,26.437596 L198,1 L208.924352,1 L219.062867,17.8588014 L229.380311,1 L240,1 L223.673921,26.2607137 Z" id="Fill-11" fill="#1D1D1D"></path>
                    <path d="M254.692385,44 C248.37571,44 242.004458,41.7896863 237,37.3119571 L242.419717,30.8047363 C246.171281,33.907265 250.103185,35.8772755 254.86798,35.8772755 C258.619544,35.8772755 260.885669,34.3854922 260.885669,31.9348752 L260.885669,31.8182925 C260.885669,29.4866375 259.454807,28.2946384 252.485583,26.4983124 C244.087869,24.3498589 238.66578,22.0229624 238.66578,13.7194157 L238.66578,13.6004537 C238.66578,6.01543739 244.742791,1 253.261523,1 C259.336162,1 264.518588,2.91052952 268.747106,6.3152216 L263.982311,13.245947 C260.287697,10.6763681 256.652405,9.12272451 253.142878,9.12272451 C249.626231,9.12272451 247.780111,10.7334698 247.780111,12.7653406 L247.780111,12.8866818 C247.780111,15.6299452 249.569282,16.5269186 256.775796,18.3779671 C265.230459,20.5906601 270,23.6337077 270,30.9189399 L270,31.0379018 C270,39.3390693 263.683325,44 254.692385,44" id="Fill-13" fill="#1D1D1D"></path>
                    <path d="M139.629501,28 L143,18 L137,24.321268 L139.629501,28 Z" id="Fill-16" fill="#FFFFFF"></path>
                </g>
            </g>
        </g>
    </g>
</svg>